<svg width="222" height="222" viewBox="0 0 222 222" fill="none" xmlns="http://www.w3.org/2000/svg">
<path d="M31.3714 177.187C29.4809 181.294 26.973 183.24 25.7555 187.285C24.538 191.329 18.9949 196.845 17.3785 200.716C15.762 204.58 16.4558 207.577 20.1361 201.153C23.813 194.729 25.2282 192.29 28.9051 188.773C32.5889 185.263 31.3853 177.198 38.1042 179.241C41.8921 180.385 33.2653 173.08 31.3714 177.187ZM53.5679 149.156C49.8772 150.221 48.5174 158.095 38.902 167.6C35.4229 171.041 41.4446 176.625 43.9699 174.093C45.6314 172.432 40.2653 171.589 42.0239 169.091C44.2821 165.879 48.6943 163.482 53.4951 153.655C53.6408 153.752 60.0233 158.723 61.5322 156.704C63.5094 154.047 55.5104 148.594 53.5679 149.156ZM93.1602 102.269C89.3377 102.949 87.4507 110.837 77.0548 119.488C73.2878 122.62 79.0598 128.979 81.7897 126.679C83.5934 125.163 78.1856 123.713 80.1351 121.351C82.643 118.323 87.2842 116.363 92.796 106.862C92.9382 106.969 99.1091 112.741 100.771 110.844C102.959 108.357 95.1756 101.912 93.1602 102.269ZM68.435 130.831C63.8944 140.009 57.9108 142.756 58.2854 145.705C58.4831 147.252 65.6461 151.914 67.1446 149.881C68.2962 148.324 62.0733 144.737 61.9484 144.647C68.3691 138.937 68.8478 135.17 70.707 132.798C72.1604 130.945 74.6649 134.702 75.4592 133.11C76.6767 130.696 70.0757 127.511 68.435 130.831ZM112.734 82.1886C109.626 82.0395 107.781 88.4081 99.071 93.7985C95.9075 95.7514 100.289 102.276 102.585 100.833C104.094 99.8896 99.8029 97.6176 101.471 95.9838C103.612 93.8783 107.427 93.0874 112.256 86.0354C112.363 86.1534 117.098 92.2584 118.517 90.9541C120.366 89.2475 114.372 82.2649 112.734 82.1886Z" fill="white"/>
<path d="M203.505 55.9301C205.832 53.2523 209.478 50.0541 215.063 47.3033C204.358 40.1612 190.532 45.2915 194.881 38.5968C201.514 28.4056 194.389 20.0945 194.389 20.0945C194.389 20.0945 184.257 25.3392 177.579 26.2133C178.287 13.8611 173.517 6.9375 173.517 6.9375C173.517 6.9375 163.583 14.3121 157.298 16.4766C149.999 10.1947 137.213 11.1971 137.213 11.1971C137.213 11.1971 139.121 20.1847 138.178 26.2793C131.223 26.2931 125.243 27.5141 125.243 27.5141C134.626 35.3223 138.528 40.1057 139.395 42.9986C132.725 42.9327 126.231 45.9193 126.231 45.9193C146.537 60.0337 140.405 74.8348 132.77 84.2698C128.757 80.194 125.135 76.2119 124.188 74.6059C120.612 68.5286 115.725 67.6198 113.126 67.6198C103.41 67.6198 95.6856 79.5974 93.5488 83.2708C90.5137 88.5052 86.8229 93.3024 84.5717 94.9397C79.0564 98.9565 71.3696 105.346 68.3865 114.344C67.2002 117.917 62.9857 122.27 59.9054 125.447C57.8276 127.591 56.0378 129.443 54.8619 131.251C54.5011 131.802 54.1022 132.433 53.6686 133.117C51.2995 136.87 48.0596 142.007 43.4254 145.802C35.7629 152.101 30.4453 159.635 28.8358 166.476C28.7283 166.937 27.0494 168.286 26.2447 168.935C23.6743 171.002 20.1605 173.829 18.995 178.786C17.9474 183.268 13.608 191.541 11.7765 193.619C7.19083 198.846 5.77558 204.521 7.89152 209.193C9.53918 212.818 13.1467 215.062 17.3092 215.062C20.9687 215.062 24.8017 213.401 28.3953 210.241C29.4706 209.297 30.924 207.733 32.9428 205.569C35.7976 202.499 43.3526 194.392 46.0998 193.227C53.4293 191.42 63.3672 183.164 69.0386 176.254C71.3211 173.465 76.545 169.775 81.1515 166.521C85.7719 163.257 90.1356 160.173 93.0285 157.134C96.1885 153.818 100.285 151.692 105.034 149.229C111.111 146.073 118 142.496 124.24 135.597C126.537 133.058 131.306 130.161 135.92 127.362C145.195 121.729 153.961 116.415 153.905 107.92C153.874 103.084 150.88 98.8837 145.015 95.4253C143.797 94.7073 141.199 92.4352 138.24 89.6256C147.8 78.9002 162.903 68.435 176.681 93.5973C176.681 93.5973 180.968 88.6127 182.439 80.0518C185.141 79.7882 189.099 81.6995 194.909 87.7282C194.909 87.7282 198.631 79.3095 196.39 71.373C201.781 67.2521 212.142 70.4954 212.142 70.4954C212.142 70.4954 211.202 61.0639 203.505 55.9301ZM141.615 101.218C159.771 111.912 128.607 120.775 119.266 131.098C109.12 142.312 96.636 143.627 88.1757 152.511C82.7853 158.165 69.0768 165.619 63.8529 171.998C58.6255 178.363 49.8322 185.457 44.414 186.73C39.0027 188.006 27.0425 202.492 23.9657 205.197C21.4439 207.414 19.1129 208.35 17.3092 208.35C13.2889 208.35 11.8841 203.671 16.8236 198.048C19.5257 194.972 24.2675 185.724 25.5336 180.32C26.8066 174.898 34.1083 173.424 35.3744 168.009C36.6475 162.594 41.3199 156.222 47.685 150.991C54.0641 145.764 58.0219 138.688 60.4916 134.907C62.951 131.122 72.2576 123.994 74.7621 116.453C77.263 108.919 84.6099 103.22 88.533 100.361C92.4458 97.51 96.8858 90.8951 99.3555 86.6424C101.201 83.4651 107.49 74.3284 113.13 74.3284C115.027 74.3284 116.852 75.3621 118.409 78.0122C119.655 80.1247 123.741 84.6757 128.219 89.2162C127.123 90.2846 126.1 91.2073 125.25 91.9496C124.591 92.5289 124.466 93.3128 124.664 94.1523L124.657 94.1592C124.778 94.6254 124.966 95.0716 125.215 95.4843C126.734 98.5507 128.864 98.9392 128.864 98.9392L128.868 98.9322C129.766 99.3589 130.567 99.4248 130.966 98.8732C131.788 97.7494 132.798 96.3515 133.967 94.8287C137.186 97.8396 140.058 100.299 141.615 101.218ZM169.539 18.537C169.539 18.537 179.328 40.2028 156.874 61.4767C156.874 61.4767 169.386 41.3961 169.539 18.537ZM145.24 71.1302C145.24 71.1302 150.971 50.2969 145.16 30.2579C145.16 30.2579 159.365 46.6686 145.24 71.1302ZM140.623 80.7213C171.617 45.5482 198.246 60.9112 198.246 60.9112C168.224 57.3454 140.623 80.7213 140.623 80.7213ZM165.345 56.6239C184.378 37.7573 198.978 47.5462 198.978 47.5462C182.328 46.5263 165.345 56.6239 165.345 56.6239Z" fill="white"/>
</svg>
