<svg width="222" height="222" viewBox="0 0 222 222" fill="none" xmlns="http://www.w3.org/2000/svg">
<path d="M156.874 17.8207C154.403 16.9318 151.541 16.1774 149.113 16.3248C142.912 16.7671 133.113 24.6758 125.569 33.0875C121.363 37.74 118.284 41.7681 115.986 44.9637C119.759 45.8742 123.097 47.1316 126.349 48.3023C131.379 41.5946 137.709 33.5385 146.641 30.7201C151.888 29.0941 157.958 29.7662 163.682 33.5862C169.102 37.2067 174.435 43.5328 180.028 53.1152C187.226 54.3726 192.169 54.7195 193.6 47.6086C192.125 45.8742 186.489 39.2532 178.25 31.8778C171.573 25.9289 163.638 20.4006 156.874 17.8207ZM63.8683 41.3345C59.0121 43.2856 55.1097 46.6113 52.6383 52.1613C32.9965 96.3445 27.4248 129.211 28.5261 150.977C29.0551 161.861 31.2751 169.925 34.0804 175.215C37.1936 180.288 39.4223 182.76 44.5734 183.627C43.1946 173.654 44.2265 163.725 45.5707 154.359L51.2508 163.898C50.8605 171.66 49.7332 177.296 53.0285 184.364C57.3644 192.299 67.4672 199.02 77.3965 201.621C82.3394 202.965 87.239 203.312 91.098 202.575C98.816 200.927 106.014 190.131 108.312 186.272L117.677 182.933C113.385 190.001 109.222 197.155 105.06 203.269C105.797 203.572 106.577 203.876 107.314 204.266C111.347 206.044 115.076 206.217 119.628 204.353C124.095 202.488 129.384 198.369 135.325 191.215C147.162 176.863 161.427 150.804 178.684 109.699C185.318 93.873 179.334 82.2094 169.925 74.925C165.98 72.0633 162.164 70.0254 157.741 68.9414C160.256 80.3449 157.481 92.182 155.053 102.068L148.376 94.3066C149.243 87.8027 153.232 74.1445 148.593 70.0254C136.625 60.573 117.2 51.3375 101.461 50.9039C95.1304 50.8605 90.6211 52.3781 87.9761 55.9769C85.1578 59.9226 82.3828 64.3887 79.7812 69.2449L68.7679 73.9277C73.841 64.5621 82.4695 46.9582 92.5722 43.923C83.7703 39.5567 72.6269 37.9698 63.8683 41.3345Z" fill="white"/>
</svg>
