<svg width="222" height="222" viewBox="0 0 222 222" fill="none" xmlns="http://www.w3.org/2000/svg">
<path d="M214.924 109.782C210.716 36.6404 172.931 25.9463 142.468 25.9428C134.771 25.9463 127.546 26.6261 121.444 27.1603C121.392 23.8338 121.535 20.2714 122.093 16.3343C122.103 16.2788 122.079 16.2303 122.072 16.1783C122.079 16.1505 122.093 16.1227 122.093 16.095C122.093 14.8705 119.79 13.875 116.938 13.875C114.094 13.875 111.791 14.8705 111.791 16.095C111.011 20.0636 109.948 23.9713 108.61 27.7882C68.4176 28.031 15.4741 34.4065 7.3919 107.299C1.52971 160.201 53.1967 208.125 111.323 208.125C169.448 208.125 217.98 162.945 214.924 109.782ZM123.609 37.4174C125.028 37.2925 126.498 37.1642 128.011 37.0428C126.193 37.7747 124.428 38.5343 122.766 39.2975C122.645 38.7494 122.561 38.0973 122.45 37.5145L123.609 37.4174ZM104.326 38.243C103.872 39.1899 103.428 40.0987 103.001 40.9347C101.978 40.0089 100.897 39.1492 99.7647 38.3609C101.284 38.3089 102.803 38.2742 104.326 38.243ZM182.619 167.631C164.564 186.754 138.577 197.719 111.323 197.719C83.5483 197.719 55.9613 185.426 37.5215 164.835C22.5816 148.147 15.5539 128.122 17.7357 108.444C21.8323 71.5083 38.1736 53.8662 59.1457 45.51C79.4656 41.736 98.5853 48.6666 98.5853 48.6666C98.5853 48.6666 55.1254 37.8788 38.0834 93.7187C59.5307 60.2834 96.4382 70.1243 106.147 57.7998C106.147 81.6266 123.463 70.0653 132.215 80.7976C143.474 94.5963 147.595 119.322 160.548 124.192C147.79 96.8024 168.678 97.8708 139.329 61.1124C154.789 70.7174 162.806 60.998 183.917 69.6525C165.855 40.13 136.96 48.6666 136.96 48.6666C136.96 48.6666 148.719 37.9516 161.186 38.2499C182.248 43.1686 201.621 59.718 204.538 110.383C205.725 131.074 197.941 151.404 182.619 167.631Z" fill="white"/>
</svg>
